<svg width="23" height="22" viewBox="0 0 23 22" fill="none" xmlns="http://www.w3.org/2000/svg">
<path d="M10.512 18.4076H12.3644V17.0845C13.2464 16.9257 14.005 16.5817 14.6401 16.0525C15.2752 15.5232 15.5928 14.7381 15.5928 13.6973C15.5928 12.9563 15.3811 12.2771 14.9577 11.6597C14.5343 11.0422 13.6875 10.5041 12.4173 10.0455C11.3588 9.69263 10.6267 9.3839 10.2209 9.11928C9.81514 8.85465 9.61226 8.493 9.61226 8.03432C9.61226 7.57563 9.77545 7.21398 10.1018 6.94935C10.4282 6.68473 10.9001 6.55242 11.5176 6.55242C12.0821 6.55242 12.5231 6.68914 12.8407 6.96258C13.1582 7.23603 13.3876 7.57563 13.5287 7.98139L15.2223 7.29337C15.0283 6.67591 14.671 6.13784 14.1506 5.67915C13.6302 5.22047 13.0524 4.96467 12.4173 4.91174V3.58862H10.5649V4.91174C9.68283 5.1058 8.9948 5.49392 8.50084 6.07609C8.00687 6.65827 7.75989 7.31101 7.75989 8.03432C7.75989 8.86347 8.00246 9.53386 8.48761 10.0455C8.97275 10.5571 9.73575 10.9981 10.7766 11.3686C11.888 11.7743 12.6599 12.136 13.0921 12.4536C13.5243 12.7711 13.7404 13.1857 13.7404 13.6973C13.7404 14.2795 13.5331 14.7073 13.1185 14.9807C12.704 15.2542 12.2056 15.3909 11.6234 15.3909C11.0412 15.3909 10.5252 15.2101 10.0754 14.8484C9.62549 14.4868 9.29471 13.9443 9.08301 13.221L7.33649 13.909C7.58347 14.7558 7.96718 15.4394 8.48761 15.9598C9.00804 16.4803 9.68283 16.8375 10.512 17.0316V18.4076ZM11.4646 21.5831C10.0004 21.5831 8.62433 21.3053 7.33649 20.7495C6.04865 20.1938 4.9284 19.4397 3.97575 18.487C3.0231 17.5344 2.26892 16.4141 1.71321 15.1263C1.15749 13.8384 0.879639 12.4624 0.879639 10.9981C0.879639 9.53386 1.15749 8.15781 1.71321 6.86997C2.26892 5.58212 3.0231 4.46188 3.97575 3.50923C4.9284 2.55658 6.04865 1.8024 7.33649 1.24669C8.62433 0.690973 10.0004 0.413116 11.4646 0.413116C12.9289 0.413116 14.3049 0.690973 15.5928 1.24669C16.8806 1.8024 18.0009 2.55658 18.9535 3.50923C19.9062 4.46188 20.6604 5.58212 21.2161 6.86997C21.7718 8.15781 22.0496 9.53386 22.0496 10.9981C22.0496 12.4624 21.7718 13.8384 21.2161 15.1263C20.6604 16.4141 19.9062 17.5344 18.9535 18.487C18.0009 19.4397 16.8806 20.1938 15.5928 20.7495C14.3049 21.3053 12.9289 21.5831 11.4646 21.5831Z" fill="white"/>
</svg>
