<svg width="30" height="22" viewBox="0 0 30 22" fill="none" xmlns="http://www.w3.org/2000/svg">
<path d="M11.4401 20.8932L11.4319 20.8897L11.4062 20.8757C11.2561 20.7931 11.1071 20.7083 10.9594 20.6214C9.18353 19.5661 7.5239 18.3265 6.00808 16.923C3.32358 14.4182 0.479248 10.7012 0.479248 6.12319C0.479248 2.70719 3.35391 -0.00180931 6.82358 -0.00180931C7.78813 -0.00653364 8.74133 0.206255 9.61229 0.62073C10.4833 1.03521 11.2496 1.6407 11.8542 2.39219C12.459 1.64055 13.2256 1.03496 14.0967 0.620476C14.9679 0.205994 15.9213 -0.00670932 16.8861 -0.00180931C20.3546 -0.00180931 23.2292 2.70719 23.2292 6.12319C23.2292 10.7024 20.3849 14.4194 17.7004 16.9219C16.1846 18.3253 14.525 19.565 12.7491 20.6202C12.6014 20.7075 12.4524 20.7927 12.3022 20.8757L12.2766 20.8897L12.2684 20.8944L12.2649 20.8955C12.1384 20.9625 11.9974 20.9976 11.8542 20.9976C11.7111 20.9976 11.5701 20.9625 11.4436 20.8955L11.4401 20.8932Z" fill="white"/>
<path d="M21.7476 18.9649L24.9376 12.7316H22.7376V8.69823L19.4376 14.9316H21.7476V18.9649ZM22.1876 21.1649C21.1731 21.1649 20.2198 20.9724 19.3276 20.5874C18.4354 20.2024 17.6592 19.6799 16.9992 19.0199C16.3392 18.3599 15.8167 17.5838 15.4317 16.6916C15.0467 15.7993 14.8542 14.846 14.8542 13.8316C14.8542 12.8171 15.0467 11.8638 15.4317 10.9716C15.8167 10.0793 16.3392 9.30323 16.9992 8.64323C17.6592 7.98323 18.4354 7.46073 19.3276 7.07573C20.2198 6.69073 21.1731 6.49823 22.1876 6.49823C23.202 6.49823 24.1554 6.69073 25.0476 7.07573C25.9398 7.46073 26.7159 7.98323 27.3759 8.64323C28.0359 9.30323 28.5584 10.0793 28.9434 10.9716C29.3284 11.8638 29.5209 12.8171 29.5209 13.8316C29.5209 14.846 29.3284 15.7993 28.9434 16.6916C28.5584 17.5838 28.0359 18.3599 27.3759 19.0199C26.7159 19.6799 25.9398 20.2024 25.0476 20.5874C24.1554 20.9724 23.202 21.1649 22.1876 21.1649Z" fill="#894189"/>
<path d="M22.1209 18.4982L25.0209 12.8315H23.0209V9.16486L20.0209 14.8315H22.1209V18.4982ZM22.5209 20.4982C21.5987 20.4982 20.732 20.3232 19.9209 19.9732C19.1098 19.6232 18.4042 19.1482 17.8042 18.5482C17.2042 17.9482 16.7292 17.2426 16.3792 16.4315C16.0292 15.6204 15.8542 14.7537 15.8542 13.8315C15.8542 12.9093 16.0292 12.0426 16.3792 11.2315C16.7292 10.4204 17.2042 9.71486 17.8042 9.11486C18.4042 8.51486 19.1098 8.03986 19.9209 7.68986C20.732 7.33986 21.5987 7.16486 22.5209 7.16486C23.4431 7.16486 24.3098 7.33986 25.1209 7.68986C25.932 8.03986 26.6376 8.51486 27.2376 9.11486C27.8376 9.71486 28.3126 10.4204 28.6626 11.2315C29.0126 12.0426 29.1876 12.9093 29.1876 13.8315C29.1876 14.7537 29.0126 15.6204 28.6626 16.4315C28.3126 17.2426 27.8376 17.9482 27.2376 18.5482C26.6376 19.1482 25.932 19.6232 25.1209 19.9732C24.3098 20.3232 23.4431 20.4982 22.5209 20.4982Z" fill="white"/>
</svg>
